# xmcd
#
# Track frame offsets:
#	150
#	10854
#	21946
#	32210
#	42188
#	56327
#	67657
#	75586
#	88199
#	102748
#	115861
#	127758
#	141594
#	154595
#	161717
#	174933
#	185595
#	198251
#	208899
#	217822
#	230492
#	239137
#	248999
#	260642
#	271021
#	279514
#
# Disc length: 3876 seconds
#
# Revision: 0
# Processed by: cddbd v1.5.2PL0 Copyright (c) Steve Scherf et al.
# Submitted via: EasyCDDAExtractor 15.3.0.1
#
DISCID=700f221a
DTITLE=Wakely Jimmy - That Last Long Trail
DYEAR=1900
DGENRE=
TTITLE0=What Will You Do When I'm Gone
TTITLE1=Somebody's Lonesome For You
TTITLE2=Nobody's Darling But Mine
TTITLE3=Texas Plains
TTITLE4=Sailor's Prayer
TTITLE5=You're Somebody's Rose
TTITLE6=With Tears In My Eyes
TTITLE7=I'm Sorry I Met You
TTITLE8=I'm Always Blue For You
TTITLE9=That Last Long Trail
TTITLE10=You're The Answer To My Prayer
TTITLE11=My Red River Rose
TTITLE12=Long Lonesome Road
TTITLE13=Those Gone And Left Me Blues
TTITLE14=One More Tear
TTITLE15=You Brought Sorrow To My Heart
TTITLE16=Live And Let Live
TTITLE17=I'm Casting My Lasso Towards The Sky
TTITLE18=Don't Laugh At My Tears
TTITLE19=Milk Cow Blues
TTITLE20=Night After Night
TTITLE21=Melody From The Sky
TTITLE22=Take Me Back To My Boots And Saddle
TTITLE23=Lonesome Trail
TTITLE24=Tears In A Heart
TTITLE25=Locked In My Heart
EXTD=
EXTT0=
EXTT1=
EXTT2=
EXTT3=
EXTT4=
EXTT5=
EXTT6=
EXTT7=
EXTT8=
EXTT9=
EXTT10=
EXTT11=
EXTT12=
EXTT13=
EXTT14=
EXTT15=
EXTT16=
EXTT17=
EXTT18=
EXTT19=
EXTT20=
EXTT21=
EXTT22=
EXTT23=
EXTT24=
EXTT25=
PLAYORDER=
